# xmcd CD database file
#
# Track frame offsets:
#	150
#	17390
#	33638
#	48900
#	62165
#	86748
#	106740
#	119510
#	133105
#	158535
#
# Disc length: 2276 seconds
#
# Revision: 0
# Processed by: cddbd v1.5.1PL0 Copyright (c) Steve Scherf et al.
# Submitted via: CDex 1.51
#
DISCID=7a08e20a
DTITLE=Eric Clapton - Sessions for Robert J
DYEAR=2004
DGENRE=Blues
TTITLE0=New Artist - Track02
TTITLE1=New Artist - Track03
TTITLE2=New Artist - Track04
TTITLE3=New Artist - Track05
TTITLE4=New Artist - Track06
TTITLE5=New Artist - Track07
TTITLE6=New Artist - Track08
TTITLE7=New Artist - Track09
TTITLE8=New Artist - Track10
TTITLE9=New Artist - Track11
EXTD=YEAR: 2004
EXTT0=
EXTT1=
EXTT2=
EXTT3=
EXTT4=
EXTT5=
EXTT6=
EXTT7=
EXTT8=
EXTT9=
PLAYORDER=
